Coordinates
version=1
nRows=7
nColumns=40
inDegrees=yes

Units are S.I. units (second, meters, Newtons, ...)
If the header above contains a line with 'inDegrees', this indicates whether rotational values are in degrees (yes) or radians (no).

endheader
time	pelvis_tilt	pelvis_list	pelvis_rotation	pelvis_tx	pelvis_ty	pelvis_tz	hip_flexion_r	hip_adduction_r	hip_rotation_r	knee_angle_r	knee_angle_r_beta	ankle_angle_r	subtalar_angle_r	mtp_angle_r	hip_flexion_l	hip_adduction_l	hip_rotation_l	knee_angle_l	knee_angle_l_beta	ankle_angle_l	subtalar_angle_l	mtp_angle_l	lumbar_extension	lumbar_bending	lumbar_rotation	arm_flex_r	arm_add_r	arm_rot_r	elbow_flex_r	pro_sup_r	wrist_flex_r	wrist_dev_r	arm_flex_l	arm_add_l	arm_rot_l	elbow_flex_l	pro_sup_l	wrist_flex_l	wrist_dev_l
      1.97000000	      0.30008788	     -7.15514704	     86.71251575	      0.22331168	      0.93235134	     -1.53200208	     29.35379187	     -1.27026550	     -1.54887896	     49.59131884	      0.86553179	      2.48863375	      0.00000000	      0.00000000	     13.37079005	      2.33844238	     -5.43698733	     12.26102065	      0.21399518	      1.45160414	     -0.00000000	      0.00000000	     -0.65637652	      0.76052299	     -2.02103796	     -0.00000000	     -0.00000000	      0.00000000	      0.00000000	      0.00000000	      0.00000000	      0.00000000	      0.00000000	      0.00000000	     -0.00000000	      0.00000000	      0.00000000	     -0.00000000	      0.00000000
      1.98000000	      0.33176002	     -7.20239596	     86.83184814	      0.22320838	      0.93274339	     -1.54257915	     30.06482483	     -1.18598169	     -1.85518540	     46.87119202	      0.81805663	      2.49104689	      0.00000000	      0.00000000	     12.24995115	      2.44080406	     -5.20187145	     11.41406680	      0.19921305	      1.52180468	      0.00000000	      0.00000000	     -0.75981995	      0.82918680	     -2.35219110	      0.00000000	      0.00000000	      0.00000000	      0.00000000	      0.00000000	      0.00000000	      0.00000000	      0.00000000	      0.00000000	      0.00000000	      0.00000000	      0.00000000	      0.00000000	      0.00000000
      1.99000000	      0.33507782	     -7.13264017	     86.93964455	      0.22319941	      0.93308347	     -1.55330534	     30.52381957	     -1.11165102	     -2.15431567	     43.91668337	      0.76649072	      2.42346410	      0.00000000	      0.00000000	     10.95947970	      2.56647473	     -5.02630730	     10.50051590	      0.18326858	      1.58659097	      0.00000000	      0.00000000	     -0.98361266	      0.85157967	     -2.68025167	      0.00000000	      0.00000000	      0.00000000	      0.00000000	      0.00000000	      0.00000000	      0.00000000	      0.00000000	      0.00000000	      0.00000000	      0.00000000	      0.00000000	      0.00000000	      0.00000000
      2.00000000	      0.35442770	     -7.22674180	     87.07453608	      0.22322210	      0.93299191	     -1.56397694	     31.04597024	     -0.99558665	     -2.49078890	     40.74184966	      0.71107942	      2.21388027	      0.00000000	      0.00000000	      9.91464184	      2.65477546	     -4.78523114	      9.71327598	      0.16952865	      1.72309935	      0.00000000	      0.00000000	     -1.01395606	      0.89999890	     -3.03699904	      0.00000000	      0.00000000	      0.00000000	      0.00000000	      0.00000000	      0.00000000	      0.00000000	      0.00000000	      0.00000000	      0.00000000	      0.00000000	      0.00000000	      0.00000000	      0.00000000
      2.01000000	      0.31908636	     -7.48766616	     87.19663722	      0.22328474	      0.93239488	     -1.57463766	     31.67493802	     -0.88558648	     -2.75738663	     37.43657859	      0.65339156	      2.01350551	      0.00000000	      0.00000000	      9.08659350	      2.78864052	     -4.48059787	      8.99800713	      0.15704485	      2.00603494	      0.00000000	      0.00000000	     -0.83817627	      0.91330288	     -3.35982769	      0.00000000	      0.00000000	      0.00000000	      0.00000000	      0.00000000	      0.00000000	      0.00000000	      0.00000000	      0.00000000	      0.00000000	      0.00000000	      0.00000000	      0.00000000	      0.00000000
      2.02000000	      0.30362568	     -7.55042173	     87.34543178	      0.22339076	      0.93188072	     -1.58560412	     31.92214564	     -0.76556485	     -3.07933461	     33.90464932	      0.59174776	      1.67790702	      0.00000000	      0.00000000	      7.98875083	      2.90301545	     -4.15117385	      8.21016200	      0.14329436	      2.20149343	      0.00000000	      0.00000000	     -0.85532933	      0.91914438	     -3.68464650	      0.00000000	      0.00000000	      0.00000000	      0.00000000	      0.00000000	      0.00000000	      0.00000000	      0.00000000	      0.00000000	      0.00000000	      0.00000000	      0.00000000	      0.00000000	      0.00000000
      2.03000000	      0.24473359	     -7.52706349	     87.48349135	      0.22354481	      0.93123864	     -1.59672242	     31.97446963	     -0.65647415	     -3.35223587	     30.25837290	      0.52810823	      1.34693254	      0.00000000	      0.00000000	      6.77315997	      3.06329374	     -3.84380783	      7.39314049	      0.12903464	      2.41205289	      0.00000000	      0.00000000	     -0.97218799	      0.88389873	     -4.03609219	      0.00000000	      0.00000000	      0.00000000	      0.00000000	      0.00000000	      0.00000000	      0.00000000	      0.00000000	      0.00000000	      0.00000000	      0.00000000	      0.00000000	      0.00000000	      0.00000000
